<svg xmlns="http://www.w3.org/2000/svg" version="1.1" xmlns:xlink="http://www.w3.org/1999/xlink" xmlns:svgjs="http://svgjs.dev/svgjs" width="1000" height="1000" viewBox="0 0 1000 1000"><rect width="1000" height="1000" fill="#f9f9f9"></rect><g transform="matrix(0.7,0,0,0.7,149.5757675313116,416.35739414171246)"><svg viewBox="0 0 396 95" data-background-color="#f9f9f9" preserveAspectRatio="xMidYMid meet" height="239" width="1000" xmlns="http://www.w3.org/2000/svg" xmlns:xlink="http://www.w3.org/1999/xlink"><defs></defs><g id="tight-bounds" transform="matrix(1,0,0,1,0.2399943955008439,-0.004198705694449245)"><svg viewBox="0 0 395.52 95.0083974113889" height="95.0083974113889" width="395.52"><g><svg viewBox="0 0 395.52 95.0083974113889" height="95.0083974113889" width="395.52"><g><svg viewBox="0 0 395.52 95.0083974113889" height="95.0083974113889" width="395.52"><g><svg viewBox="0 0 395.52 95.0083974113889" height="95.0083974113889" width="395.52"><g><svg viewBox="0 0 395.52 62.588118195956454" height="62.588118195956454" width="395.52"><g transform="matrix(1,0,0,1,0,0)"><svg width="395.52" viewBox="0.45000001788139343 -38.75 257.17999267578125 40.70000076293945" height="62.588118195956454" data-palette-color="#030303"><path d="M24.35-26.35Q24.1-27.15 22.43-27.78 20.75-28.4 18.05-28.4L18.05-28.4Q15.1-28.4 13.45-26.75 11.8-25.1 11.8-22.6L11.8-22.6Q11.8-21.05 12.93-20.23 14.05-19.4 16.4-18.4L16.4-18.4 18.2-17.65 19.7-16.95Q22.4-15.75 23.98-14.78 25.55-13.8 26.65-12.1 27.75-10.4 27.75-7.75L27.75-7.75Q27.75-4.9 25.88-2.83 24-0.75 20.65 0.33 17.3 1.4 12.85 1.4L12.85 1.4Q9.55 1.4 6.68 0.38 3.8-0.65 2.13-2.2 0.45-3.75 0.45-5.25L0.45-5.25Q0.45-6.7 1.7-7.63 2.95-8.55 5.25-8.9L5.25-8.9Q5.5-7.45 6.95-6.3 8.4-5.15 10.33-4.48 12.25-3.8 13.7-3.8L13.7-3.8Q16.35-3.8 18.43-4.85 20.5-5.9 20.5-7.75L20.5-7.75Q20.5-9.3 19.03-10.33 17.55-11.35 14.6-12.55L14.6-12.55 11.95-13.75Q8.7-15.35 6.8-17.35 4.9-19.35 4.9-22.65L4.9-22.65Q4.9-26.3 6.95-28.58 9-30.85 11.93-31.85 14.85-32.85 17.65-32.85L17.65-32.85Q22.1-32.85 24.98-31.7 27.85-30.55 29.15-28.8 30.45-27.05 30.45-25.2L30.45-25.2Q30.45-24.15 29.93-22.65 29.4-21.15 28.38-20.05 27.35-18.95 25.9-18.95L25.9-18.95Q23.4-18.95 23.4-21.55L23.4-21.55Q23.5-22.35 23.85-24.18 24.2-26 24.35-26.35L24.35-26.35ZM42 1.05Q37.6 1.05 35.15-1.95 32.7-4.95 32.7-9.6L32.7-9.6Q32.7-13.5 34.57-16.95 36.45-20.4 39.7-22.5 42.95-24.6 46.85-24.6L46.85-24.6Q50.7-24.6 53.17-22.08 55.65-19.55 55.65-14.65L55.65-14.65Q55.65-11.2 53.75-7.5 51.85-3.8 48.67-1.38 45.5 1.05 42 1.05L42 1.05ZM42.75-2.95Q44.35-2.95 45.97-4.95 47.6-6.95 48.65-10 49.7-13.05 49.7-15.95L49.7-15.95Q49.7-20.4 46-20.4L46-20.4Q43.95-20.4 42.25-18.45 40.55-16.5 39.55-13.63 38.55-10.75 38.55-8.25L38.55-8.25Q38.55-6.8 39.2-5.58 39.85-4.35 40.82-3.65 41.8-2.95 42.75-2.95L42.75-2.95ZM77.75-0.15Q77.55 0.7 76.84 1.03 76.15 1.35 75 1.35L75 1.35Q71.55 1.35 71.55-0.2L71.55-0.2 71.84-2.1Q70.45-1.05 68.55 0 66.65 1.05 65.39 1.05L65.39 1.05Q58 1.05 58-3.8L58-3.8Q58-12.05 62.95-21.7L62.95-21.7Q63.55-22.85 64.22-23.35 64.89-23.85 66.55-23.85L66.55-23.85Q68.3-23.85 69.17-23.38 70.05-22.9 70.05-22.25L70.05-22.25Q70.05-22.1 69.5-21.35L69.5-21.35Q68.95-20.7 68.55-20.05L68.55-20.05Q63.84-12.2 63.84-4.75L63.84-4.75Q63.84-4.1 64.34-3.6 64.84-3.1 65.25-3.1L65.25-3.1Q66.34-3.1 68.97-4.15 71.59-5.2 73-6.3L73-6.3 74-10.35Q75.8-17.6 76.25-19.25L76.25-19.25Q76.8-21.25 77.67-22.53 78.55-23.8 80.45-23.8L80.45-23.8Q83.09-23.8 83.09-22.2L83.09-22.2Q83.09-21.95 82.97-21.58 82.84-21.2 82.8-20.95L82.8-20.95 80.8-12.85Q78.4-3.2 77.75-0.15L77.75-0.15ZM87.74-22.85Q87.59-23 87.59-23.2L87.59-23.2Q87.59-23.7 88.69-24.03 89.79-24.35 91.74-24.35L91.74-24.35Q93.54-24.35 94.39-23.43 95.24-22.5 95.39-21.2L95.39-21.2 94.49-17.95Q95.54-19.4 97.44-20.73 99.34-22.05 101.29-22.85 103.24-23.65 104.49-23.65L104.49-23.65Q107.14-23.65 108.34-22.68 109.54-21.7 109.54-19.6L109.54-19.6Q106.59-11.9 105.64-3L105.64-3 106.34-0.55Q105.74 0.6 104.67 1.28 103.59 1.95 101.54 1.95L101.54 1.95Q100.34 1.95 99.79 1.15 99.24 0.35 99.24-0.85L99.24-0.85Q99.24-4.2 100.22-8.22 101.19-12.25 102.49-16.45L102.49-16.45Q102.99-18.05 102.99-18.1L102.99-18.1Q102.99-18.8 102.19-18.8L102.19-18.8Q101.09-18.8 98.87-17.25 96.64-15.7 94.29-12.03 91.94-8.35 90.49-2.4L90.49-2.4Q90.39-2.1 90.24-1.3 90.09-0.5 89.44-0.18 88.79 0.15 87.34 0.15L87.34 0.15Q85.69 0.15 84.92-0.2 84.14-0.55 84.14-1.7L84.14-1.7Q84.29-2.4 84.59-3.4L84.59-3.4Q87.49-15.05 89.04-21.35L89.04-21.35 87.74-22.85ZM133.64-37.05Q133.84-37.8 134.81-38.27 135.79-38.75 136.89-38.75L136.89-38.75Q137.79-38.75 138.84-38.35 139.89-37.95 139.89-37.2L139.89-37.2 136.74-24.9Q132.59-8.75 131.89-5.2L131.89-5.2Q131.59-3.7 131.59-2.9L131.59-2.9Q131.59-1.55 131.89-0.25L131.89-0.25Q131.79 0.05 131.12 0.35 130.44 0.65 129.89 0.65L129.89 0.65Q128.89 0.65 127.69 0.4 126.49 0.15 126.19-0.15L126.19-0.15Q125.74-0.55 125.74-1.75L125.74-1.75Q125.74-2.65 125.94-3.45L125.94-3.45Q124.89-1.95 122.77-0.98 120.64 0 119.34 0L119.34 0Q111.69 0 111.69-8.25L111.69-8.25Q111.69-11.85 113.32-15.45 114.94-19.05 117.97-21.4 120.99-23.75 124.99-23.75L124.99-23.75Q126.09-23.75 127.44-22.88 128.79-22 129.64-20.9L129.64-20.9Q130.74-25.55 131.59-28.65L131.59-28.65Q131.99-30.3 132.52-32.43 133.04-34.55 133.64-37.05L133.64-37.05ZM128.54-16.25Q128.24-17.35 127.12-18.28 125.99-19.2 125.29-19.2L125.29-19.2Q122.99-19.2 120.99-17.7 118.99-16.2 117.82-13.8 116.64-11.4 116.64-8.85L116.64-8.85Q116.64-6.95 117.34-5.45 118.04-3.95 119.49-3.95L119.49-3.95Q120.74-3.95 122.42-4.78 124.09-5.6 125.39-6.93 126.69-8.25 126.99-9.65L126.99-9.65 128.54-16.25ZM159.69-5.9Q159.09-4.3 157.34-2.68 155.59-1.05 152.89 0 150.19 1.05 146.99 1.05L146.99 1.05Q142.09 1.05 139.74-0.98 137.39-3 137.39-6.25L137.39-6.25Q137.39-10.95 139.79-14.98 142.19-19 146.24-21.35 150.29-23.7 154.89-23.7L154.89-23.7Q157.74-23.7 159.61-22.03 161.49-20.35 161.49-17.5L161.49-17.5Q161.49-16.4 160.59-15.68 159.69-14.95 158.19-14.95L158.19-14.95Q156.99-14.95 156.56-15.5 156.14-16.05 156.14-16.95L156.14-16.95 156.19-18.1Q156.19-18.7 155.54-19.07 154.89-19.45 154.14-19.45L154.14-19.45Q152.59-19.45 149.96-17.6 147.34-15.75 145.36-12.73 143.39-9.7 143.39-6.25L143.39-6.25Q143.39-4.85 144.49-4.1 145.59-3.35 147.74-3.35L147.74-3.35Q149.09-3.35 150.84-3.9 152.59-4.45 153.04-5.3L153.04-5.3Q154.74-8.4 156.14-8.4L156.14-8.4Q158.19-8.4 158.91-7.63 159.64-6.85 159.69-5.9L159.69-5.9ZM176.99-35.85L174.89-27.2Q169.24-3.45 168.24-0.05L168.24-0.05Q168.14 0.25 167.21 0.73 166.29 1.2 165.94 1.2L165.94 1.2Q164.54 1.2 163.24 0.5 161.94-0.2 161.84-1.75L161.84-1.75Q161.89-1.85 162.34-2.8 162.79-3.75 163.24-5.5L163.24-5.5Q164.39-9.8 165.86-15.7 167.34-21.6 167.84-23.6L167.84-23.6 170.19-33.15Q170.14-33.55 170.14-37.3L170.14-37.3Q170.29-37.95 171.26-38.35 172.24-38.75 173.04-38.75L173.04-38.75Q174.29-38.75 175.61-37.9 176.94-37.05 176.99-35.85L176.99-35.85ZM186.68 1.05Q182.28 1.05 179.83-1.95 177.38-4.95 177.38-9.6L177.38-9.6Q177.38-13.5 179.26-16.95 181.13-20.4 184.38-22.5 187.63-24.6 191.53-24.6L191.53-24.6Q195.38-24.6 197.86-22.08 200.33-19.55 200.33-14.65L200.33-14.65Q200.33-11.2 198.43-7.5 196.53-3.8 193.36-1.38 190.18 1.05 186.68 1.05L186.68 1.05ZM187.43-2.95Q189.03-2.95 190.66-4.95 192.28-6.95 193.33-10 194.38-13.05 194.38-15.95L194.38-15.95Q194.38-20.4 190.68-20.4L190.68-20.4Q188.63-20.4 186.93-18.45 185.23-16.5 184.23-13.63 183.23-10.75 183.23-8.25L183.23-8.25Q183.23-6.8 183.88-5.58 184.53-4.35 185.51-3.65 186.48-2.95 187.43-2.95L187.43-2.95ZM222.43-0.15Q222.23 0.7 221.53 1.03 220.83 1.35 219.68 1.35L219.68 1.35Q216.23 1.35 216.23-0.2L216.23-0.2 216.53-2.1Q215.13-1.05 213.23 0 211.33 1.05 210.08 1.05L210.08 1.05Q202.68 1.05 202.68-3.8L202.68-3.8Q202.68-12.05 207.63-21.7L207.63-21.7Q208.23-22.85 208.91-23.35 209.58-23.85 211.23-23.85L211.23-23.85Q212.98-23.85 213.86-23.38 214.73-22.9 214.73-22.25L214.73-22.25Q214.73-22.1 214.18-21.35L214.18-21.35Q213.63-20.7 213.23-20.05L213.23-20.05Q208.53-12.2 208.53-4.75L208.53-4.75Q208.53-4.1 209.03-3.6 209.53-3.1 209.93-3.1L209.93-3.1Q211.03-3.1 213.66-4.15 216.28-5.2 217.68-6.3L217.68-6.3 218.68-10.35Q220.48-17.6 220.93-19.25L220.93-19.25Q221.48-21.25 222.36-22.53 223.23-23.8 225.13-23.8L225.13-23.8Q227.78-23.8 227.78-22.2L227.78-22.2Q227.78-21.95 227.66-21.58 227.53-21.2 227.48-20.95L227.48-20.95 225.48-12.85Q223.08-3.2 222.43-0.15L222.43-0.15ZM251.38-37.05Q251.58-37.8 252.55-38.27 253.53-38.75 254.63-38.75L254.63-38.75Q255.53-38.75 256.58-38.35 257.63-37.95 257.63-37.2L257.63-37.2 254.48-24.9Q250.33-8.75 249.63-5.2L249.63-5.2Q249.33-3.7 249.33-2.9L249.33-2.9Q249.33-1.55 249.63-0.25L249.63-0.25Q249.53 0.05 248.85 0.35 248.18 0.65 247.63 0.65L247.63 0.65Q246.63 0.65 245.43 0.4 244.23 0.15 243.93-0.15L243.93-0.15Q243.48-0.55 243.48-1.75L243.48-1.75Q243.48-2.65 243.68-3.45L243.68-3.45Q242.63-1.95 240.5-0.98 238.38 0 237.08 0L237.08 0Q229.43 0 229.43-8.25L229.43-8.25Q229.43-11.85 231.05-15.45 232.68-19.05 235.7-21.4 238.73-23.75 242.73-23.75L242.73-23.75Q243.83-23.75 245.18-22.88 246.53-22 247.38-20.9L247.38-20.9Q248.48-25.55 249.33-28.65L249.33-28.65Q249.73-30.3 250.25-32.43 250.78-34.55 251.38-37.05L251.38-37.05ZM246.28-16.25Q245.98-17.35 244.85-18.28 243.73-19.2 243.03-19.2L243.03-19.2Q240.73-19.2 238.73-17.7 236.73-16.2 235.55-13.8 234.38-11.4 234.38-8.85L234.38-8.85Q234.38-6.95 235.08-5.45 235.78-3.95 237.23-3.95L237.23-3.95Q238.48-3.95 240.15-4.78 241.83-5.6 243.13-6.93 244.43-8.25 244.73-9.65L244.73-9.65 246.28-16.25Z" opacity="1" transform="matrix(1,0,0,1,0,0)" fill="#030303" class="undefined-text-0" data-fill-palette-color="primary" id="text-0"></path></svg></g></svg></g><g transform="matrix(1,0,0,1,75.54432,77.36367078718507)"><svg viewBox="0 0 244.43135999999998 17.64472662420382" height="17.64472662420382" width="244.43135999999998"><g transform="matrix(1,0,0,1,0,0)"><svg width="244.43135999999998" viewBox="5 -33.25 470.95001220703125 34" height="17.64472662420382" data-palette-color="#030303"><path d="M17.65 0L5 0 5-32.5 8.5-32.5 8.5-3 17.65-3 17.65 0ZM27.15-32.5L27.15 0 23.65 0 23.65-32.5 27.15-32.5ZM53.05-6.25L53.05-6.25Q53.05 0.75 44.6 0.75 36.15 0.75 36.15-6.25L36.15-6.25 36.15-10.5 39.65-10.5 39.65-6.05Q39.65-4.25 40.9-3.25 42.15-2.25 44.6-2.25 47.05-2.25 48.3-3.25 49.55-4.25 49.55-5.98 49.55-7.7 49.17-8.72 48.8-9.75 47.65-10.9L47.65-10.9 38.85-19.5Q37.3-21.05 36.72-22.53 36.15-24 36.15-26.25L36.15-26.25Q36.15-29.6 38.22-31.43 40.3-33.25 44.5-33.25L44.5-33.25Q52.55-33.25 52.55-26.25L52.55-26.25 52.55-22 49.05-22 49.05-26.45Q49.05-28.25 47.87-29.25 46.7-30.25 44.35-30.25 42-30.25 40.82-29.25 39.65-28.25 39.65-26.5 39.65-24.75 40-23.75 40.35-22.75 41.55-21.65L41.55-21.65 50.5-13.05Q51.95-11.45 52.5-9.98 53.05-8.5 53.05-6.25ZM61.29-5.75L61.29-32.5 72.29-32.5 72.29-29.5 64.79-29.5 64.79-5.55Q64.79-4.15 65.52-3.2 66.24-2.25 67.57-2.25 68.89-2.25 69.59-3.18 70.29-4.1 70.29-5.55L70.29-5.55 70.29-11.5 73.79-11.5 73.79-5.75Q73.79-2.6 72.12-0.93 70.44 0.75 67.59 0.75 64.74 0.75 63.02-0.93 61.29-2.6 61.29-5.75L61.29-5.75ZM93.04-6.25L93.04-6.25 93.04-9 96.54-9 96.54-6.25Q96.54-2.9 94.49-1.07 92.44 0.75 88.34 0.75 84.24 0.75 82.14-1.07 80.04-2.9 80.04-6.25L80.04-6.25 80.04-26.25Q80.04-29.6 82.09-31.43 84.14-33.25 88.24-33.25 92.34-33.25 94.44-31.43 96.54-29.6 96.54-26.25L96.54-26.25 96.54-15.25 83.54-15.25 83.54-6.25Q83.54-2.25 88.29-2.25 93.04-2.25 93.04-6.25ZM83.54-26.25L83.54-26.25 83.54-18.25 93.04-18.25 93.04-26.25Q93.04-30.25 88.29-30.25 83.54-30.25 83.54-26.25ZM109.29-25.25L109.29 0 105.79 0 105.79-32.5 107.29-32.5 108.54-29.25Q110.94-33.25 115.19-33.25L115.19-33.25Q122.54-33.25 122.54-26.25L122.54-26.25 122.54 0 119.04 0 119.04-26.25Q119.04-28.15 118.21-29.2 117.39-30.25 115.19-30.25 112.99-30.25 111.14-28.55 109.29-26.85 109.29-25.25L109.29-25.25ZM135.54-32.5L135.54 0 132.04 0 132.04-32.5 135.54-32.5ZM149.03-25.25L149.03 0 145.53 0 145.53-32.5 147.03-32.5 148.28-29.25Q150.68-33.25 154.93-33.25L154.93-33.25Q162.28-33.25 162.28-26.25L162.28-26.25 162.28 0 158.78 0 158.78-26.25Q158.78-28.15 157.96-29.2 157.13-30.25 154.93-30.25 152.73-30.25 150.88-28.55 149.03-26.85 149.03-25.25L149.03-25.25ZM184.03-13.5L178.43-13.5 178.43-16.5 187.53-16.5 187.53-6.25Q187.53-2.9 185.48-1.07 183.43 0.75 179.33 0.75 175.23 0.75 173.13-1.07 171.03-2.9 171.03-6.25L171.03-6.25 171.03-26.25Q171.03-29.6 173.08-31.43 175.13-33.25 179.23-33.25 183.33-33.25 185.43-31.43 187.53-29.6 187.53-26.25L187.53-26.25 187.53-23.5 184.03-23.5 184.03-26.25Q184.03-30.25 179.28-30.25 174.53-30.25 174.53-26.25L174.53-26.25 174.53-6.25Q174.53-2.25 179.28-2.25 184.03-2.25 184.03-6.25L184.03-6.25 184.03-13.5ZM212.78-3L215.28-3 215.28 0 206.78 0 206.78-3 209.28-3 209.28-29.5 206.78-29.5 206.78-32.5 215.28-32.5 215.28-29.5 212.78-29.5 212.78-3ZM239.67-6.25L239.67-6.25Q239.67 0.75 231.22 0.75 222.77 0.75 222.77-6.25L222.77-6.25 222.77-10.5 226.27-10.5 226.27-6.05Q226.27-4.25 227.52-3.25 228.77-2.25 231.22-2.25 233.67-2.25 234.92-3.25 236.17-4.25 236.17-5.98 236.17-7.7 235.8-8.72 235.42-9.75 234.27-10.9L234.27-10.9 225.47-19.5Q223.92-21.05 223.35-22.53 222.77-24 222.77-26.25L222.77-26.25Q222.77-29.6 224.85-31.43 226.92-33.25 231.12-33.25L231.12-33.25Q239.17-33.25 239.17-26.25L239.17-26.25 239.17-22 235.67-22 235.67-26.45Q235.67-28.25 234.5-29.25 233.32-30.25 230.97-30.25 228.62-30.25 227.45-29.25 226.27-28.25 226.27-26.5 226.27-24.75 226.62-23.75 226.97-22.75 228.17-21.65L228.17-21.65 237.12-13.05Q238.57-11.45 239.12-9.98 239.67-8.5 239.67-6.25ZM274.92-3L274.92 0 260.17 0 260.17-32.5 274.42-32.5 274.42-29.5 263.67-29.5 263.67-18 272.42-18 272.42-15 263.67-15 263.67-3 274.92-3ZM299.37-32.5L292.02 0 286.77 0 279.42-32.5 282.92-32.5 289.37-3.85 295.87-32.5 299.37-32.5ZM318.61-6.25L318.61-6.25 318.61-9 322.11-9 322.11-6.25Q322.11-2.9 320.06-1.07 318.01 0.75 313.91 0.75 309.81 0.75 307.71-1.07 305.61-2.9 305.61-6.25L305.61-6.25 305.61-26.25Q305.61-29.6 307.66-31.43 309.71-33.25 313.81-33.25 317.91-33.25 320.01-31.43 322.11-29.6 322.11-26.25L322.11-26.25 322.11-15.25 309.11-15.25 309.11-6.25Q309.11-2.25 313.86-2.25 318.61-2.25 318.61-6.25ZM309.11-26.25L309.11-26.25 309.11-18.25 318.61-18.25 318.61-26.25Q318.61-30.25 313.86-30.25 309.11-30.25 309.11-26.25ZM334.86-22.85L334.86 0 331.36 0 331.36-32.5 332.86-32.5 334.31-28.8Q335.91-33.25 339.41-33.25L339.41-33.25Q345.36-33.25 345.36-26.75L345.36-26.75 345.36-23.5 342.01-23.5 342.01-26.95Q342.01-30.25 339.26-30.25L339.26-30.25Q337.61-30.25 336.24-28.35 334.86-26.45 334.86-22.85L334.86-22.85ZM359.91-9.2L359.91 0 356.41 0 356.41-9.2Q349.61-9.95 349.61-16.1L349.61-16.1 349.61-32.5 353.11-32.5 353.11-16.1Q353.11-12.1 358.11-12.1 363.11-12.1 363.11-16.1L363.11-16.1 363.11-32.5 366.61-32.5 366.61-16.1Q366.61-9.95 359.91-9.2L359.91-9.2ZM374.11-5.75L374.11-32.5 385.11-32.5 385.11-29.5 377.61-29.5 377.61-5.55Q377.61-4.15 378.33-3.2 379.06-2.25 380.38-2.25 381.71-2.25 382.41-3.18 383.11-4.1 383.11-5.55L383.11-5.55 383.11-11.5 386.61-11.5 386.61-5.75Q386.61-2.6 384.93-0.93 383.25 0.75 380.41 0.75 377.56 0.75 375.83-0.93 374.11-2.6 374.11-5.75L374.11-5.75ZM397.1-15L397.1 0 393.6 0 393.6-32.5 397.1-32.5 397.1-18 406.95-18 406.95-32.5 410.45-32.5 410.45 0 406.95 0 406.95-15 397.1-15ZM423.95-32.5L423.95 0 420.45 0 420.45-32.5 423.95-32.5ZM437.45-25.25L437.45 0 433.95 0 433.95-32.5 435.45-32.5 436.7-29.25Q439.1-33.25 443.35-33.25L443.35-33.25Q450.7-33.25 450.7-26.25L450.7-26.25 450.7 0 447.2 0 447.2-26.25Q447.2-28.15 446.37-29.2 445.55-30.25 443.35-30.25 441.15-30.25 439.3-28.55 437.45-26.85 437.45-25.25L437.45-25.25ZM472.45-13.5L466.85-13.5 466.85-16.5 475.95-16.5 475.95-6.25Q475.95-2.9 473.9-1.07 471.85 0.75 467.75 0.75 463.65 0.75 461.55-1.07 459.45-2.9 459.45-6.25L459.45-6.25 459.45-26.25Q459.45-29.6 461.5-31.43 463.55-33.25 467.65-33.25 471.75-33.25 473.85-31.43 475.95-29.6 475.95-26.25L475.95-26.25 475.95-23.5 472.45-23.5 472.45-26.25Q472.45-30.25 467.7-30.25 462.95-30.25 462.95-26.25L462.95-26.25 462.95-6.25Q462.95-2.25 467.7-2.25 472.45-2.25 472.45-6.25L472.45-6.25 472.45-13.5Z" opacity="1" transform="matrix(1,0,0,1,0,0)" fill="#030303" class="undefined-text-1" data-fill-palette-color="secondary" id="text-1"></path></svg></g></svg></g></svg></g></svg></g><g></g></svg></g></svg><rect width="395.52" height="95.0083974113889" fill="none" stroke="none" visibility="hidden"></rect></g></svg></g></svg>